<svg width="82" height="57" viewBox="0 0 82 57" fill="none" xmlns="http://www.w3.org/2000/svg">
<g clip-path="url(#clip0_40000814_7964)">
<path d="M53.5006 11.3606H51.2878L49.3826 8.91059H51.3397L52.422 10.3747L53.5377 8.91059H55.4095L53.5043 11.3606H53.5006ZM64.3794 11.5089H62.7893L63.6455 8.70673H66.4477L64.3757 11.5089H64.3794ZM26.1573 15.2599H23.7406C23.7035 13.4993 25.2417 12.1279 27.1654 12.165H27.3285V14.1591C26.5613 14.1962 26.1573 14.5594 26.1573 15.2599ZM56.9811 17.5321H51.1951V15.6121H54.253C54.2864 14.7336 53.7378 14.1072 52.9298 14.0738V12.0612C53.8639 12.0982 54.5422 12.2984 55.1649 12.7395C56.3176 13.5475 57.0144 15.082 57.0144 16.8797C57.0144 17.0984 56.9959 17.2615 56.9774 17.5358M36.0686 21.2831H33.411V12.3095H36.0686V21.2831ZM41.2319 21.2831H38.5928V16.0828C38.5928 15.1487 38.5743 15.0005 38.4297 14.7447C38.2814 14.489 38.0072 14.3407 37.6773 14.3407C37.3659 14.3407 37.1102 14.4519 36.7432 14.7447V12.695C37.3474 12.2354 37.8404 12.0538 38.4445 12.0538C39.601 12.0538 40.5869 12.695 40.9724 13.6847C41.1726 14.2332 41.2282 14.7114 41.2282 16.0828V21.2831H41.2319ZM46.3766 21.2831H43.756V15.916C43.756 15.2006 43.7004 14.9078 43.5374 14.6706C43.3891 14.4334 43.0814 14.2851 42.7849 14.2851C42.455 14.2851 42.1474 14.4334 41.8138 14.7447C41.8138 14.1406 41.6507 13.5735 41.3394 12.9878C41.8731 12.4207 42.7516 12.0538 43.5744 12.0538C44.6753 12.0538 45.6242 12.606 46.0467 13.4808C46.3062 14.0479 46.3766 14.5446 46.3766 15.916V21.2831ZM31.9432 21.2831H29.3449C29.1077 20.8457 29.0336 20.2416 29.0336 18.6848V15.6084C29.0336 14.8003 28.978 14.5816 28.6629 14.363C28.4813 14.2332 28.2959 14.1813 27.9846 14.1628V12.1687C29.1225 12.1501 30.0158 12.443 30.6756 13.0101C31.4095 13.6328 31.6096 14.274 31.6096 16.0309V19.163C31.6096 20.501 31.6467 20.7568 31.9395 21.2868M58.0634 12.3132H59.3644V9.93361H61.9849V12.3132H63.5936V14.3444H61.9849V17.7693C61.9849 19.0147 62.1851 19.2519 63.2304 19.2519C63.412 19.2519 63.5417 19.2519 63.7604 19.2149V21.1571C63.2081 21.3017 62.515 21.3943 61.8367 21.3943C60.847 21.3943 60.0983 21.0459 59.7276 20.4232C59.42 19.9265 59.3644 19.5077 59.3644 17.862V14.3444H58.0634V12.3132ZM52.296 21.524C49.6754 21.524 47.8444 19.5818 47.8444 16.8538C47.8444 14.1257 49.7125 12.0575 52.1292 12.0575H52.2923V14.0701C51.0469 14.1443 50.4983 15.0042 50.4983 16.8352C50.4983 18.6663 51.0283 19.3261 52.2923 19.4187V21.524H52.296ZM52.9335 19.4187C53.6118 19.4187 54.1641 19.0147 54.3086 18.4661L56.8884 18.6663C56.6327 20.3342 54.9832 21.5203 52.9335 21.5203V19.415V19.4187ZM16.687 18.7775C17.091 19.1963 17.4765 19.3817 17.9324 19.3817C18.9369 19.3817 19.504 18.4476 19.504 16.7611C19.504 15.0746 18.9369 14.2147 17.9101 14.2147C17.4357 14.2147 17.0131 14.3963 16.6833 14.7447V12.6394C17.2318 12.2354 17.8731 12.0167 18.5699 12.0167C20.6938 12.0167 22.1949 13.9589 22.1949 16.7611C22.1949 19.5633 20.6752 21.5796 18.5366 21.5796C17.8397 21.5796 17.1614 21.3424 16.687 20.9384V18.7812V18.7775ZM28.4294 17.4579C26.4723 17.4579 25.8681 17.7137 25.8681 18.5551C25.8681 19.1407 26.2907 19.5262 26.9282 19.5262C27.4212 19.5262 27.9179 19.3631 28.4294 19.0518V20.9532C27.9327 21.3387 27.1284 21.5945 26.3389 21.5945C24.5264 21.5945 23.2476 20.4047 23.2476 18.7552C23.2476 17.3986 23.7962 16.5758 24.986 16.1532C25.7903 15.8641 26.7429 15.7159 27.7325 15.7159C27.9179 15.7159 28.0995 15.7159 28.4294 15.7529V17.4579ZM0 0H20.1452V2.98379H2.98379V21.6352H0V0ZM16.0309 24.0705H13.4104V12.3132H16.0309V24.0705ZM28.1699 28.0847H26.4871L28.0254 25.6309H30.7386L28.1736 28.0847H28.1699ZM25.8274 31.984H23.4107C23.3736 30.2271 24.9118 28.8519 26.8356 28.889H26.9986V30.8868C26.2314 30.9239 25.8274 31.2909 25.8274 31.984ZM63.6714 31.984H61.251C61.2103 30.2271 62.7522 28.8519 64.6759 28.889H64.839V30.8868C64.0717 30.9239 63.6714 31.2909 63.6714 31.984ZM36.4875 29.9676C37.0916 29.2893 37.8997 28.9075 38.6669 28.9075C38.9041 28.9075 39.1043 28.9261 39.4156 29.0002V31.3279C38.9783 31.2353 38.7967 31.2167 38.5557 31.2167C37.8255 31.2167 37.1102 31.5651 36.4875 32.2249V29.9713V29.9676ZM59.2903 38.0109H56.6697V25.7977H59.2903V38.0109ZM69.4537 38.0109H66.8517C66.6145 37.5698 66.5403 36.9656 66.5403 35.4089V32.3361C66.5403 31.5281 66.4847 31.3094 66.1734 31.0907C65.9918 30.961 65.8101 30.9091 65.4951 30.8905V28.8927C66.633 28.8742 67.53 29.167 68.186 29.7341C68.9199 30.3568 69.1201 30.998 69.1201 32.755V35.887C69.1201 37.2251 69.1609 37.4808 69.45 38.0109M31.6133 38.0109H29.015C28.7778 37.5698 28.7037 36.9656 28.7037 35.4089V32.3361C28.7037 31.5281 28.6481 31.3094 28.3367 31.0907C28.1514 30.961 27.9698 30.9091 27.6584 30.8905V28.8927C28.7963 28.8742 29.6896 29.167 30.3494 29.7341C31.0833 30.3568 31.2834 30.998 31.2834 32.755V35.887C31.2834 37.2251 31.3168 37.4808 31.6133 38.0109ZM16.0494 38.0109H13.4141V29.0373H16.0494V38.0109ZM35.8092 38.0109H33.0997V29.0373H35.8092V38.0109ZM21.4499 38.0109H18.8331V32.6104C18.8331 31.8765 18.796 31.6578 18.5959 31.4354C18.4142 31.1982 18.1029 31.0499 17.8101 31.0499C17.495 31.0499 17.1688 31.1945 16.7092 31.5429V29.4746C17.4246 29.0002 17.9583 28.8149 18.67 28.8149C19.7708 28.8149 20.7383 29.4005 21.1423 30.316C21.3795 30.8646 21.4536 31.4317 21.4536 32.6067V38.0072L21.4499 38.0109ZM44.4195 38.2481C43.0852 38.1925 42.2438 37.9182 41.5247 37.314C40.535 36.4541 40.0235 35.1716 40.0235 33.5444C40.0235 31.6207 40.7389 30.2085 42.1289 29.3857C42.8072 28.9631 43.504 28.8 44.4195 28.8V30.9424C43.2112 30.9795 42.6997 31.7097 42.6997 33.4518C42.6997 35.3162 43.1408 35.9945 44.4195 36.0501V38.2481ZM45.0978 36.0501C46.3062 36.013 46.7991 35.2828 46.7991 33.4666C46.7991 31.6504 46.3062 30.9943 45.0978 30.9387V28.7963C46.2839 28.7963 47.1476 29.0892 47.9148 29.7489C48.9971 30.6644 49.4716 31.8172 49.4716 33.4851C49.4716 36.4689 47.8592 38.211 45.0941 38.2481V36.0501H45.0978ZM56.0322 31.4539C55.6096 31.0722 55.2612 30.9239 54.8016 30.9239C53.7601 30.9239 53.193 31.8394 53.193 33.5037C53.193 35.1679 53.7415 36.0872 54.7831 36.0872C55.2242 36.0872 55.5541 35.9241 56.0322 35.483V37.6624C55.4836 38.0665 54.8609 38.2852 54.1826 38.2852C52.0032 38.2852 50.502 36.3058 50.502 33.4666C50.502 30.6274 52.0032 28.7259 54.1678 28.7259C54.8424 28.7259 55.4132 28.9261 56.0359 29.3671V31.4539H56.0322ZM28.0995 34.182C26.1387 34.182 25.5346 34.4377 25.5346 35.2791C25.5346 35.8648 25.9571 36.2502 26.5946 36.2502C27.0876 36.2502 27.5843 36.0872 28.0958 35.7758V37.681C27.5991 38.0665 26.7948 38.3222 26.0053 38.3222C24.1928 38.3222 22.9103 37.1324 22.9103 35.483C22.9103 34.1264 23.4589 33.3035 24.6524 32.8847C25.4567 32.5919 26.4093 32.4473 27.399 32.4473C27.5806 32.4473 27.7659 32.4473 28.0958 32.4844V34.1894L28.0995 34.182ZM65.9399 34.182C63.9791 34.182 63.3749 34.4377 63.3749 35.2791C63.3749 35.8648 63.7975 36.2502 64.4387 36.2502C64.9317 36.2502 65.4284 36.0872 65.9399 35.7758V37.681C65.4469 38.0665 64.6426 38.3222 63.8531 38.3222C62.0406 38.3222 60.7581 37.1324 60.7581 35.483C60.7581 34.1264 61.3066 33.3035 62.5002 32.8847C63.3045 32.5919 64.2571 32.4473 65.2467 32.4473C65.4284 32.4473 65.6137 32.4473 65.9436 32.4844V34.1894L65.9399 34.182ZM81.5 28.7333V49.9534H62.8004L55.8876 56.54L46.3729 47.0289H50.4723L55.9395 52.5295L61.681 47.0289H78.5681V28.737H81.4963L81.5 28.7333Z" fill="#231F20"/>
</g>
<defs>
<clipPath id="clip0_40000814_7964">
<rect width="81.5" height="56.54" fill="white"/>
</clipPath>
</defs>
</svg>
