<svg id="Group_179" data-name="Group 179" xmlns="http://www.w3.org/2000/svg" xmlns:xlink="http://www.w3.org/1999/xlink" width="181.333" height="17.106" viewBox="0 0 181.333 17.106">
  <defs>
    <clipPath id="clip-path">
      <rect id="Rectangle_1931" data-name="Rectangle 1931" width="181.333" height="17.106" fill="#3c5a7d"/>
    </clipPath>
  </defs>
  <g id="Group_178" data-name="Group 178" transform="translate(0 0)" clip-path="url(#clip-path)">
    <path id="Path_58" data-name="Path 58" d="M115.013,2.156h.719c2.857,0,3.891.9,3.891,2.857s-1.011,3.192-4.026,3.192h-.585Zm-48.515,0H67.78c2.833,0,4.092.9,4.092,3.464,0,2.518-1.237,3.754-4.227,3.754H66.5Zm60.722,7.915c.135-1.956,1.034-3.6,2.789-3.6,1.529,0,2.226,1.057,2.226,3.1v.494ZM27.427,10.3a4.608,4.608,0,1,0,4.607-4.609A4.614,4.614,0,0,0,27.427,10.3m-13.713,0a4.608,4.608,0,1,0,4.607-4.609A4.614,4.614,0,0,0,13.714,10.3M0,10.3A4.608,4.608,0,1,0,4.607,5.688,4.614,4.614,0,0,0,0,10.3M115.013,9.283H116.2c2.857,0,4.026.99,4.026,3.172,0,2.2-1.011,3.372-4.161,3.372h-1.057Zm-31.45,2.048c0,2.5-.54,4.7-2.79,4.7-2.338,0-2.855-2.338-2.855-4.856,0-2.452.494-4.656,2.788-4.656,2.362,0,2.857,2.361,2.857,4.813m78.976-5.6v.875L164,6.765V15.8l-1.461.157v.9h5.125v-.9l-1.529-.157V9.845a2.727,2.727,0,0,1,2.766-2.9c1.731,0,1.956.854,1.956,2.338V15.8l-1.483.157v.9h5.1v-.9l-1.484-.157V10.047a2.779,2.779,0,0,1,2.766-3.1c1.731,0,1.956.854,1.956,2.338V15.8l-1.484.157v.9h5.1v-.9L179.85,15.8V9.26c0-2.63-.922-3.82-3.3-3.82a4.19,4.19,0,0,0-3.71,2.246c-.337-1.527-1.3-2.246-3.035-2.246a4.135,4.135,0,0,0-3.822,2.269h-.09L165.776,5.6ZM62.227,1.124V2l1.911.157V15.8l-1.911.157v.9h7.082v-.9L66.5,15.8v-5.4h.854c3.935,0,7.127-.965,7.127-4.9,0-3.419-2.81-4.384-6.542-4.384Zm48.517,0v.9l1.911.135V15.8l-1.911.157v.9h5.034c4.071,0,7.059-.875,7.059-4.45,0-2.137-1.617-3.509-4.18-3.867V8.5c2.2-.382,3.393-1.573,3.393-3.62,0-2.879-2.426-3.754-6.16-3.754ZM142.487.135V1.01l1.6.158V15.8l-1.6.157v.9h5.439v-.9l-1.709-.157V0Zm-6.587,0V1.01l1.6.158V15.8l-1.6.157v.9h5.439v-.9L139.63,15.8V0ZM152.467,5.6l-3.62.135v.875l1.484.157v6.522c0,2.63,1.079,3.82,3.462,3.82a4.2,4.2,0,0,0,3.777-2.156h.09l.112,1.909h3.26v-.9l-1.462-.157V5.6l-3.664.135v.875l1.529.157v5.8a2.779,2.779,0,0,1-2.922,3.035c-1.664,0-2.046-.809-2.046-2.293ZM75.583,11.331c0,3.417,1.73,5.776,5.1,5.776,3.284,0,5.216-2.359,5.216-5.866,0-3.419-1.639-5.8-5.081-5.8-3.215,0-5.237,2.381-5.237,5.89M99.1,14.455a2.347,2.347,0,0,0,2.628,2.651c1.913,0,2.812-.92,3.26-2.831l-.852-.225c-.383,1.372-.9,1.776-1.733,1.776-.877,0-1.169-.494-1.169-1.731V6.787h2.475v-1.1h-2.475V2.338h-.517L99.1,2.787v2.9H97.412v1.1H99.1Zm25.786-3.036c0,3.4,1.617,5.688,5.036,5.688a4.221,4.221,0,0,0,4.337-2.943l-.987-.337a2.812,2.812,0,0,1-2.923,1.933c-2.317,0-3.126-1.731-3.126-4.5h7.149c.023-.314.045-.65.045-.942,0-3.329-1.639-4.878-4.337-4.878-2.947,0-5.193,2.179-5.193,5.978m-36.96,5.688h.762c.068-.762.18-.92.36-.92a.644.644,0,0,1,.27.09,5.463,5.463,0,0,0,2.947.83,3.5,3.5,0,0,0,3.775-3.73c0-2.63-1.864-3.082-3.573-3.419C91,9.665,89.744,9.418,89.744,8.136A1.83,1.83,0,0,1,91.79,6.473c1.485,0,2.407.809,2.834,2.473H95.5V5.44h-.74c-.022.4-.112.65-.382.65a.868.868,0,0,1-.4-.133,4.315,4.315,0,0,0-2.16-.517A3.487,3.487,0,0,0,88.15,8.856c0,2.452,1.819,2.79,3.505,3.126,1.44.27,2.767.54,2.767,2.069,0,1.282-.832,1.956-2.248,1.956A3.135,3.135,0,0,1,88.8,13.084h-.875Z" transform="translate(0 0)" fill="#3c5a7d"/>
  </g>
</svg>
