<svg width="90" height="36" viewBox="0 0 90 36" fill="none" xmlns="http://www.w3.org/2000/svg">
<path d="M18 0.625H70C79.5959 0.625 87.375 8.40405 87.375 18C87.375 27.5959 79.5959 35.375 70 35.375H18C8.40405 35.375 0.625 27.5959 0.625 18C0.625 8.40405 8.40405 0.625 18 0.625Z" fill="#9BFFD2"/>
<path d="M18 0.625H70C79.5959 0.625 87.375 8.40405 87.375 18C87.375 27.5959 79.5959 35.375 70 35.375H18C8.40405 35.375 0.625 27.5959 0.625 18C0.625 8.40405 8.40405 0.625 18 0.625Z" stroke="black" stroke-width="1.25"/>
<path d="M28.6094 18.0822C28.6094 11.3756 33.3706 7.71844 40.7769 7.71844C48.1825 7.71844 52.4148 11.2996 52.4148 17.7008C52.4148 24.712 48.0318 28.2939 40.172 28.2939C32.2368 28.2939 28.6094 24.1787 28.6094 18.0822ZM42.6279 17.9294C42.6279 15.1102 42.1367 13.9669 40.5878 13.9669C39.0766 13.9669 38.3586 15.1102 38.3586 18.0442C38.3586 21.092 38.8875 22.2354 40.5125 22.2354C41.91 22.2354 42.6279 21.1688 42.6279 17.9294Z" fill="black"/>
<path d="M54.0781 8.17501H62.7305L62.9949 10.919H63.1087C63.9396 9.50903 65.7914 7.71844 69.4565 7.71844C73.1216 7.71844 76.2955 9.62298 76.2955 15.9102V27.8366H66.7738V16.3295C66.7738 14.8056 66.2826 14.3863 65.5269 14.3863C64.2425 14.3863 63.5998 15.1482 63.5998 17.2055V27.8366H54.0781V8.17501Z" fill="black"/>
</svg>
