<svg width="168" height="17" viewBox="0 0 168 17" fill="none" xmlns="http://www.w3.org/2000/svg">
<g clip-path="url(#clip0_40000814_7967)">
<path d="M76.4015 16.7102H77.1474C77.2152 15.9643 77.3226 15.8117 77.4978 15.8117C77.5826 15.8117 77.673 15.8569 77.7634 15.8965C78.4867 16.3373 79.3909 16.7046 80.6397 16.7046C83.0979 16.7046 84.3298 15.0828 84.3298 13.0597C84.3298 10.4885 82.5102 10.0477 80.8375 9.71996C79.4078 9.43176 78.1816 9.19442 78.1816 7.9399C78.1816 6.99618 79.0405 6.31241 80.182 6.31241C81.6343 6.31241 82.5328 7.10355 82.951 8.73103H83.8043V5.30653H83.081C83.0584 5.7021 82.9736 5.93944 82.708 5.93944C82.6006 5.93944 82.465 5.89423 82.3124 5.80947C81.7869 5.50432 81.0579 5.30653 80.2046 5.30653C78.1815 5.30653 76.6275 6.75319 76.6275 8.64062C76.6275 11.0366 78.4019 11.3644 80.052 11.6978C81.4591 11.9578 82.7532 12.2234 82.7532 13.7209C82.7532 14.9697 81.9395 15.6309 80.555 15.6309C78.9953 15.6309 77.3904 14.755 77.2604 12.7771H76.4071V16.7046L76.4015 16.7102ZM112.506 11.1553C112.506 14.4724 114.082 16.7102 117.422 16.7102C119.682 16.7102 121.09 15.5461 121.66 13.8339L120.694 13.5061C120.146 14.7776 119.355 15.3936 117.84 15.3936C115.58 15.3936 114.783 13.7039 114.783 10.9971H121.768C121.79 10.6919 121.813 10.3585 121.813 10.076C121.813 6.82665 120.214 5.31218 117.575 5.31218C114.698 5.31218 112.506 7.44261 112.506 11.1497V11.1553ZM87.3136 14.1221C87.3136 15.9417 88.2968 16.7102 89.8791 16.7102C91.7496 16.7102 92.6255 15.8117 93.0606 13.9469L92.2299 13.7265C91.857 15.0658 91.3484 15.4614 90.5346 15.4614C89.6757 15.4614 89.3931 14.9754 89.3931 13.7717V6.63451H91.8118V5.56083H89.3931V2.2889H88.8902L87.3136 2.72968V5.56083H85.6691V6.63451H87.3136V14.1277V14.1221ZM64.3423 11.0649C64.3423 14.4046 66.0319 16.7102 69.3264 16.7102C72.621 16.7102 74.418 14.4046 74.418 10.9801C74.418 7.55563 72.8188 5.31783 69.4564 5.31783C66.3145 5.31783 64.3423 7.64604 64.3423 11.0705V11.0649ZM139.45 5.46476L135.912 5.59473V6.44803L137.364 6.60061V12.9693C137.364 15.5405 138.421 16.6989 140.749 16.6989C142.637 16.6989 143.824 15.6705 144.439 14.5911H144.524L144.632 16.4559H147.813V15.58L146.389 15.4275V5.46476L142.812 5.59473V6.44803L144.304 6.60061V12.2686C144.304 14.269 143.01 15.2353 141.45 15.2353C139.89 15.2353 139.45 14.4442 139.45 12.9975V5.46476ZM123.265 0.130217V0.983518L124.825 1.13609V15.4331L123.265 15.5857V16.4616H128.577V15.5857L126.91 15.4331V0.000244141L123.265 0.130217ZM129.702 0.130217V0.983518L131.261 1.13609V15.4331L129.702 15.5857V16.4616H135.014V15.5857L133.347 15.4331V0.000244141L129.707 0.130217H129.702ZM98.689 1.09654V1.97244L100.554 2.10242V15.4331L98.689 15.5857V16.4616H103.605C107.584 16.4616 110.5 15.6083 110.5 12.116C110.5 10.0308 108.917 8.69148 106.414 8.34112V8.29591C108.567 7.92294 109.725 6.75884 109.725 4.75838C109.725 1.94419 107.358 1.09089 103.707 1.09089H98.6834L98.689 1.09654ZM51.2998 1.09654V1.94984L53.1646 2.10242V15.4331L51.2998 15.5857V16.4616H58.2166V15.5857L55.4702 15.4331V10.1607H56.3065C60.1492 10.1607 63.2686 9.21702 63.2686 5.37434C63.2686 2.0346 60.5222 1.09089 56.8773 1.09089H51.2998V1.09654ZM149.282 5.60038V6.45368L150.712 6.60626V15.4388L149.282 15.5913V16.4672H154.289V15.5913L152.797 15.4388V9.61824C152.797 7.79297 154.091 6.78144 155.499 6.78144C157.188 6.78144 157.409 7.61779 157.409 9.06444V15.4331L155.956 15.5857V16.4616H160.94V15.5857L159.488 15.4331V9.81038C159.488 7.74776 160.805 6.78144 162.189 6.78144C163.879 6.78144 164.099 7.61779 164.099 9.06444V15.4331L162.647 15.5857V16.4616H167.631V15.5857L166.179 15.4331V9.04184C166.179 6.47064 165.28 5.31218 162.952 5.31218C161.065 5.31218 159.946 6.45368 159.33 7.50477C159.002 6.01291 158.053 5.31218 156.363 5.31218C154.301 5.31218 153.244 6.45368 152.628 7.52737H152.537L152.43 5.46476L149.265 5.59473L149.282 5.60038ZM72.1406 11.0649C72.1406 13.5061 71.6151 15.6535 69.4169 15.6535C67.2186 15.6535 66.6253 13.3705 66.6253 10.9067C66.6253 8.44283 67.1056 6.35762 69.349 6.35762C71.5925 6.35762 72.1406 8.66322 72.1406 11.0592V11.0649ZM102.859 9.06444H104.024C106.815 9.06444 107.957 10.0308 107.957 12.1612C107.957 14.2916 106.968 15.4557 103.894 15.4557H102.859V9.06444ZM0 10.0986C0 12.5794 2.01741 14.6024 4.49819 14.6024C6.97898 14.6024 9.00204 12.5794 9.00204 10.0986C9.00204 7.61779 6.97898 5.60038 4.49819 5.60038C2.01741 5.60038 0 7.61779 0 10.0986ZM13.3929 10.0986C13.3929 12.5794 15.4103 14.6024 17.8911 14.6024C20.3718 14.6024 22.3949 12.5794 22.3949 10.0986C22.3949 7.61779 20.3775 5.60038 17.8911 5.60038C15.4046 5.60038 13.3929 7.61779 13.3929 10.0986ZM26.7914 10.0986C26.7914 12.5794 28.8088 14.6024 31.2896 14.6024C33.7704 14.6024 35.7934 12.5794 35.7934 10.0986C35.7934 7.61779 33.776 5.60038 31.2896 5.60038C28.8031 5.60038 26.7914 7.61779 26.7914 10.0986ZM114.783 9.83863C114.913 7.92859 115.795 6.32371 117.507 6.32371C118.999 6.32371 119.682 7.35784 119.682 9.3583V9.84428H114.783V9.83863ZM55.4702 2.10807H56.7191C59.4881 2.10807 60.7143 2.98397 60.7143 5.49301C60.7143 8.00206 59.505 9.16051 56.5834 9.16051H55.4645V2.10807H55.4702ZM102.859 2.10807H103.56C106.352 2.10807 107.363 2.98397 107.363 4.89966C107.363 6.81535 106.374 8.01901 103.43 8.01901H102.859V2.10807Z" fill="#1C1618"/>
</g>
<defs>
<clipPath id="clip0_40000814_7967">
<rect width="167.643" height="16.71" fill="white"/>
</clipPath>
</defs>
</svg>
