<svg width="200" height="36" viewBox="0 0 200 36" fill="none" xmlns="http://www.w3.org/2000/svg">
<path d="M0.160156 22.6832L8.45815 21.6551C8.76286 22.4926 9.33394 23.1404 10.4757 23.1404C11.0848 23.1404 11.5033 22.9498 11.5033 22.302C11.5033 20.0171 0.654969 22.9118 0.654969 14.9895C0.654969 10.3809 5.56554 7.71564 11.0085 7.71564C16.3376 7.71564 19.497 9.31482 20.6008 12.8572L12.6071 14.1899C12.3028 13.5809 11.846 12.8952 10.8943 12.8952C10.2852 12.8952 9.98092 13.2376 9.98092 13.6188C9.98092 15.9417 20.9055 12.6286 20.9055 20.6261C20.9055 26.1869 15.31 28.2819 10.5899 28.2819C4.8423 28.2819 1.0739 26.9485 0.160156 22.6832Z" fill="black"/>
<path d="M23.528 20.1698V14.0372H21.3203V8.17199H23.528V4.40182L33.1203 1.88837V8.17199H36.9267V14.0372H33.1203V18.8743C33.1203 21.1212 33.8436 21.731 35.5185 21.731C35.7469 21.731 36.3939 21.6551 37.2693 21.4265L38.0305 27.3297C36.7745 27.9007 34.9474 28.2819 32.7397 28.2819C27.8675 28.2819 23.528 26.8346 23.528 20.1698Z" fill="black"/>
<path d="M38.1445 18.0747C38.1445 11.3711 42.9405 7.71564 50.401 7.71564C57.8619 7.71564 62.1248 11.2952 62.1248 17.6935C62.1248 24.7016 57.7094 28.2819 49.7924 28.2819C41.7987 28.2819 38.1445 24.1685 38.1445 18.0747ZM52.2664 17.9221C52.2664 15.1041 51.7716 13.9613 50.2113 13.9613C48.6885 13.9613 47.9653 15.1041 47.9653 18.0367C47.9653 21.0833 48.498 22.2261 50.1346 22.2261C51.5432 22.2261 52.2664 21.16 52.2664 17.9221Z" fill="black"/>
<path d="M63.7969 8.17199H72.5138L72.7802 10.9907H72.894C73.4268 9.84789 74.7594 7.71564 78.7559 7.71564C83.3617 7.71564 85.5694 10.7242 84.5419 17.6555L75.1783 18.1127C75.4827 15.8278 75.3681 14.609 74.531 14.609C73.4268 14.609 73.3888 15.9417 73.3888 17.7323V27.8248H63.7969V8.17199Z" fill="black"/>
<path d="M86.0243 34.5284L86.7855 28.7011C87.5087 28.8909 88.5363 29.0815 89.3354 29.0815C90.0966 29.0815 91.5431 29.0436 92.0379 27.6722V27.6342L84.5391 8.172H94.6266L96.5679 19.4074H96.7584L98.7376 8.172H108.405L101.744 26.7199C99.4988 32.9664 97.2532 35.2513 91.581 35.2513C89.3354 35.2513 86.8234 34.8329 86.0243 34.5284Z" fill="black"/>
<path d="M128.16 0.625H180.16C189.756 0.625 197.535 8.40405 197.535 18C197.535 27.5959 189.756 35.375 180.16 35.375H128.16C118.564 35.375 110.785 27.5959 110.785 18C110.785 8.40405 118.564 0.625 128.16 0.625Z" fill="#9BFFD2"/>
<path d="M128.16 0.625H180.16C189.756 0.625 197.535 8.40405 197.535 18C197.535 27.5959 189.756 35.375 180.16 35.375H128.16C118.564 35.375 110.785 27.5959 110.785 18C110.785 8.40405 118.564 0.625 128.16 0.625Z" stroke="black" stroke-width="1.25"/>
<path d="M138.77 18.0822C138.77 11.3756 143.531 7.71844 150.937 7.71844C158.343 7.71844 162.575 11.2996 162.575 17.7008C162.575 24.712 158.192 28.2939 150.332 28.2939C142.397 28.2939 138.77 24.1787 138.77 18.0822ZM152.788 17.9294C152.788 15.1102 152.297 13.9669 150.748 13.9669C149.237 13.9669 148.519 15.1102 148.519 18.0442C148.519 21.092 149.048 22.2354 150.673 22.2354C152.07 22.2354 152.788 21.1688 152.788 17.9294Z" fill="black"/>
<path d="M164.238 8.17501H172.891L173.155 10.919H173.269C174.1 9.50903 175.952 7.71844 179.617 7.71844C183.282 7.71844 186.456 9.62298 186.456 15.9102V27.8366H176.934V16.3295C176.934 14.8056 176.443 14.3863 175.687 14.3863C174.403 14.3863 173.76 15.1482 173.76 17.2055V27.8366H164.238V8.17501Z" fill="black"/>
</svg>
