<svg width="135" height="42" viewBox="0 0 135 42" fill="none" xmlns="http://www.w3.org/2000/svg">
<path d="M14.5274 29.4007C14.5715 29.9712 14.5274 30.5197 14.3949 31.0243C14.3728 31.156 14.3287 31.2657 14.3066 31.3754C14.3066 31.3973 14.2845 31.4412 14.2845 31.4631L14.2183 31.6606L12.9377 35.3247C12.8936 35.4344 12.717 35.4344 12.6949 35.3247L12.2754 34.1399L12.1871 33.8766C12.0546 33.4817 11.4806 33.5036 11.3702 33.8986L11.1494 34.7323L9.40525 41.0513C9.3611 41.1829 9.18447 41.1829 9.14032 41.0513L7.39615 34.7323L7.17537 33.8986C7.06498 33.5036 6.49095 33.4817 6.35848 33.8766L6.27017 34.1399L5.85069 35.3247C5.80653 35.4344 5.62991 35.4344 5.60783 35.3247L4.3273 31.6387C4.30522 31.5948 4.28314 31.529 4.28314 31.4851C4.26107 31.4193 4.23899 31.3534 4.21691 31.2876C4.19483 31.1998 4.17275 31.1121 4.15068 31.0243C4.06236 30.6294 4.01821 30.2344 4.01821 29.8176C4.01821 26.8117 6.55718 24.3982 9.62603 24.5737C12.1871 24.7492 14.3287 26.8336 14.5274 29.4007Z" fill="#151517"/>
<path d="M18.5014 22.0944H14.2845L13.2027 19.5932H5.32081L4.23899 22.0944H0L8.61045 2.6329H9.89097L18.5014 22.0944ZM6.68965 16.3898H11.7897L9.25071 9.91725L6.68965 16.3898Z" fill="#151517"/>
<path d="M29.2534 7.43794C30.269 7.43794 31.1963 7.6354 32.0574 8.0084C32.9184 8.38139 33.669 8.90797 34.2652 9.5662C34.8833 10.2244 35.3691 11.0143 35.7002 11.9358C36.0535 12.8354 36.2301 13.8447 36.2301 14.9198C36.2301 15.9949 36.0535 17.0041 35.7002 17.9256C35.347 18.8472 34.8613 19.637 34.2431 20.3172C33.6249 20.9974 32.8742 21.5239 32.0353 21.8969C31.1742 22.2699 30.2469 22.4674 29.2314 22.4674C27.3989 22.4674 25.9638 21.8969 24.9261 20.756V27.3383H20.9962V7.78899H24.617V9.5662C25.1248 8.88603 25.7651 8.38139 26.5599 8.0084C27.3547 7.61346 28.2599 7.43794 29.2534 7.43794ZM28.569 10.9704C28.1054 10.9704 27.6417 11.0582 27.2222 11.2118C26.7807 11.3653 26.4054 11.6067 26.0521 11.9139C25.7209 12.243 25.4339 12.6379 25.2131 13.1206C24.9924 13.6033 24.882 14.2176 24.882 14.8978C24.882 15.578 24.9924 16.1704 25.1911 16.675C25.3898 17.1797 25.6768 17.5965 26.03 17.9256C26.3833 18.2548 26.7807 18.4961 27.2002 18.6497C27.6417 18.8033 28.0833 18.891 28.5469 18.891C29.0547 18.891 29.5184 18.8033 29.982 18.6058C30.4236 18.4303 30.821 18.167 31.1521 17.8159C31.4833 17.4868 31.7703 17.07 31.947 16.5873C32.1457 16.1046 32.234 15.556 32.234 14.9417C32.234 14.3493 32.1457 13.8008 31.947 13.2961C31.7483 12.8134 31.4833 12.3746 31.1521 12.0455C30.821 11.6945 30.4236 11.4312 29.982 11.2556C29.5404 11.0582 29.0768 10.9704 28.569 10.9704Z" fill="#151517"/>
<path d="M47.6665 7.43794C48.6821 7.43794 49.6094 7.6354 50.4705 8.0084C51.3315 8.38139 52.0821 8.90797 52.6783 9.5662C53.2964 10.2244 53.7822 11.0143 54.1133 11.9358C54.4666 12.8354 54.6432 13.8447 54.6432 14.9198C54.6432 15.9949 54.4666 17.0041 54.1133 17.9256C53.7601 18.8472 53.2744 19.637 52.6562 20.3172C52.038 20.9974 51.2873 21.5239 50.4484 21.8969C49.5873 22.2699 48.66 22.4674 47.6445 22.4674C45.812 22.4674 44.3769 21.8969 43.3392 20.756V27.3383H39.4093V7.78899H43.0301V9.5662C43.5379 8.88603 44.1782 8.38139 44.973 8.0084C45.7457 7.61346 46.6509 7.43794 47.6665 7.43794ZM46.96 10.9704C46.4964 10.9704 46.0328 11.0582 45.6133 11.2118C45.1717 11.3653 44.7964 11.6067 44.4431 11.9139C44.112 12.243 43.825 12.6379 43.6042 13.1206C43.3834 13.6033 43.273 14.2176 43.273 14.8978C43.273 15.578 43.3834 16.1704 43.5821 16.675C43.7808 17.1797 44.0678 17.5965 44.4211 17.9256C44.7743 18.2548 45.1717 18.4961 45.5912 18.6497C46.0328 18.8033 46.4743 18.891 46.938 18.891C47.4458 18.891 47.9094 18.8033 48.373 18.6058C48.8146 18.4303 49.212 18.167 49.5432 17.8159C49.8743 17.4868 50.1614 17.07 50.338 16.5873C50.5367 16.1046 50.625 15.556 50.625 14.9417C50.625 14.3493 50.5367 13.8008 50.338 13.2961C50.1393 12.8134 49.8743 12.3746 49.5432 12.0455C49.212 11.6945 48.8146 11.4312 48.373 11.2556C47.9315 11.0582 47.4678 10.9704 46.96 10.9704Z" fill="#151517"/>
<path d="M61.7303 0.372993H57.8004V22.0944H61.7303V0.372993Z" fill="#151517"/>
<path d="M69.8771 7.74511H65.9472V22.0944H69.8771V7.74511Z" fill="#151517"/>
<path d="M91.5577 18.913C91.2486 18.9349 90.9837 18.9349 90.7408 18.9349C89.8356 18.9349 89.1512 18.7813 88.7097 18.4522C88.2681 18.1231 88.0473 17.5527 88.0473 16.7189V11.0582H92.1538V7.74511H88.0473V4.12487H84.1174V7.74511H78.6862V5.74849C78.6862 4.91474 78.907 4.34428 79.3265 4.01517C79.746 3.68606 80.4083 3.53247 81.2693 3.53247C81.6005 3.53247 81.9979 3.55441 82.4616 3.62023V0.329112C82.1966 0.241349 81.8655 0.153584 81.5122 0.0877619C81.159 0.0219395 80.7395 0 80.2979 0C78.5979 0 77.2511 0.438816 76.2355 1.31645C75.22 2.19408 74.7122 3.55441 74.7122 5.39744V7.74511H72.681V11.0582H74.7122V22.0944H78.6862V11.0582H84.1174V17.048C84.1174 18.913 84.6252 20.2733 85.6629 21.129C86.7006 22.0066 88.0915 22.4235 89.8798 22.4235C90.3876 22.4235 90.8512 22.3796 91.3149 22.3138C91.7564 22.248 92.198 22.1602 92.5954 22.0725V18.8033C92.2201 18.8691 91.8668 18.891 91.5577 18.913Z" fill="#151517"/>
<path d="M99.3071 7.74511H95.3772V22.0944H99.3071V7.74511Z" fill="#151517"/>
<path d="M111.318 7.43794C112.157 7.43794 112.907 7.56958 113.592 7.85481C114.276 8.14004 114.85 8.53498 115.314 9.03962C115.777 9.54426 116.131 10.1367 116.396 10.8607C116.638 11.5628 116.771 12.3527 116.771 13.2303V22.0944H112.863V13.713C112.863 12.8793 112.62 12.221 112.134 11.6945C111.649 11.1898 110.986 10.9265 110.17 10.9265C109.353 10.9265 108.69 11.1898 108.183 11.6945C107.675 12.1991 107.432 12.8793 107.432 13.713V22.0944H103.502V7.74511H107.123V9.0835C107.631 8.57886 108.227 8.18392 108.933 7.87675C109.64 7.59152 110.434 7.43794 111.318 7.43794Z" fill="#151517"/>
<path d="M126.463 7.43794C127.523 7.43794 128.428 7.61346 129.223 7.98646C130.018 8.35945 130.658 8.86409 131.166 9.54426V7.74511H134.764V20.4927C134.764 21.6995 134.588 22.7526 134.213 23.6522C133.837 24.5298 133.329 25.2758 132.689 25.8902C132.027 26.4826 131.254 26.9433 130.349 27.2286C129.444 27.5138 128.428 27.6674 127.346 27.6674C125.779 27.6674 124.388 27.4041 123.218 26.8775C122.048 26.3509 121.054 25.7366 120.237 24.9906L122.312 22.2699C123.041 22.8404 123.77 23.2792 124.498 23.6083C125.227 23.9374 126.066 24.113 127.015 24.113C128.119 24.113 129.046 23.8277 129.775 23.2792C130.503 22.7307 130.879 21.875 130.879 20.7121V19.9003C130.349 20.4708 129.709 20.9096 128.958 21.1948C128.207 21.4801 127.368 21.6336 126.463 21.6336C125.47 21.6336 124.542 21.4581 123.703 21.1071C122.842 20.756 122.114 20.2733 121.496 19.659C120.877 19.0446 120.392 18.2986 120.061 17.421C119.707 16.5434 119.531 15.578 119.531 14.5029C119.531 13.4278 119.707 12.4404 120.061 11.5848C120.414 10.7071 120.899 9.96113 121.518 9.34679C122.136 8.73245 122.864 8.24975 123.725 7.92064C124.542 7.61346 125.47 7.43794 126.463 7.43794ZM127.214 10.7729C126.706 10.7729 126.22 10.8607 125.779 11.0143C125.315 11.1898 124.918 11.4312 124.609 11.7383C124.277 12.0675 124.012 12.4404 123.814 12.9012C123.615 13.362 123.527 13.8885 123.527 14.5029C123.527 15.0953 123.615 15.6438 123.814 16.1046C124.012 16.5873 124.277 16.9822 124.609 17.3113C124.94 17.6404 125.337 17.9037 125.801 18.0792C126.242 18.2548 126.728 18.3425 127.236 18.3425C127.7 18.3425 128.163 18.2767 128.583 18.1012C129.024 17.9476 129.4 17.7062 129.753 17.3991C130.084 17.07 130.371 16.675 130.592 16.1923C130.813 15.7096 130.923 15.1172 130.923 14.459C130.923 13.8008 130.813 13.2303 130.592 12.7696C130.371 12.2869 130.106 11.9139 129.753 11.6067C129.4 11.2995 129.002 11.0801 128.583 10.9485C128.097 10.8388 127.655 10.7729 127.214 10.7729Z" fill="#151517"/>
</svg>
