<svg width="190" height="88" viewBox="0 0 190 88" fill="none" xmlns="http://www.w3.org/2000/svg">
<path d="M49.5406 26.7208H45.1587V41.4083H32.8244C36.5572 38.487 38.4235 34.6732 38.4235 30.3724C38.4235 22.5823 32.094 15.4414 22.1942 15.4414H17.8122V41.4083H5.96484V45.628H17.8122V71.6761H22.1942C32.094 71.6761 38.4235 64.5351 38.4235 56.745C38.4235 52.4443 36.476 48.5492 32.8244 45.628H45.1587V59.0983C45.1587 66.8884 50.9201 72.0818 59.7651 72.0818V67.8622C53.598 67.8622 49.5406 64.2917 49.5406 59.0983V45.628H59.7651V41.4083H49.5406V26.7208ZM33.9604 56.5828C33.9604 61.9385 30.1465 67.213 22.1942 67.4564V45.7091C30.1465 45.8714 33.9604 51.2271 33.9604 56.5828ZM22.1942 41.4083V19.661C30.1465 19.9044 33.9604 25.1789 33.9604 30.5347C33.9604 35.8903 30.1465 41.2461 22.1942 41.4083Z" fill="black"/>
<path d="M167.752 59.3901C166.937 58.9454 165.953 58.7227 164.798 58.7227C163.472 58.7227 162.294 59.0022 161.262 59.5605C160.23 60.1191 159.42 60.9286 158.834 61.9888C158.247 63.0494 157.953 64.299 157.953 65.7378C157.953 67.0256 158.213 68.1803 158.734 69.2028C159.255 70.2252 159.988 71.016 160.935 71.5743C161.882 72.1325 162.97 72.4121 164.201 72.4121C165.716 72.4121 166.98 72.0051 167.993 71.1908C169.006 70.3769 169.635 69.2596 169.882 67.8395L169.569 67.7542C169.247 68.4927 168.746 69.1033 168.064 69.5862C167.382 70.069 166.587 70.3104 165.678 70.3104C164.239 70.3104 163.103 69.7756 162.27 68.7058C161.441 67.6419 161.055 66.1781 161.107 64.3177H169.882C170.033 63.163 169.919 62.1641 169.541 61.3213C169.162 60.4791 168.565 59.8351 167.752 59.3901ZM166.729 63.6077H161.15C161.242 62.4968 161.513 61.5526 161.986 60.7959C162.554 59.8871 163.311 59.4326 164.258 59.4326C165.148 59.4326 165.82 59.8116 166.275 60.5687C166.729 61.3262 166.88 62.3393 166.729 63.6077Z" fill="black"/>
<path d="M183.446 61.9899C182.907 60.9488 182.144 60.1394 181.16 59.5616C180.175 58.9843 179.049 58.6953 177.78 58.6953C176.511 58.6953 175.385 58.9843 174.4 59.5616C173.416 60.1394 172.654 60.9488 172.114 61.9899C171.575 63.0314 171.305 64.2243 171.305 65.5685C171.305 66.9131 171.575 68.101 172.114 69.1329C172.654 70.165 173.416 70.9745 174.4 71.5612C175.385 72.1479 176.511 72.4416 177.78 72.4416C179.049 72.4416 180.175 72.1479 181.16 71.5612C182.144 70.9745 182.907 70.165 183.446 69.1329C183.986 68.101 184.256 66.9131 184.256 65.5685C184.256 64.2243 183.986 63.0314 183.446 61.9899ZM180.109 70.1269C179.56 71.1968 178.784 71.7315 177.78 71.7315C176.776 71.7315 176 71.1968 175.451 70.1269C174.902 69.0574 174.628 67.5379 174.628 65.5685C174.628 63.5995 174.902 62.0799 175.451 61.0101C176 59.9406 176.776 59.4054 177.78 59.4054C178.784 59.4054 179.56 59.9406 180.109 61.0101C180.658 62.0799 180.933 63.5995 180.933 65.5685C180.933 67.5379 180.658 69.0574 180.109 70.1269Z" fill="black"/>
<path d="M89.6588 63.4804C88.5037 62.6382 86.8658 62.1695 84.7455 62.0745C86.4305 61.9423 87.7653 61.4782 88.75 60.6829C89.7344 59.8877 90.2269 58.875 90.2269 57.644C90.2269 56.2052 89.5923 55.0785 88.324 54.2642C87.0553 53.4503 85.3037 53.043 83.0698 53.043H74.3789V53.4406C75.2878 53.5355 75.9361 53.7201 76.3244 53.9944C76.7123 54.2691 76.9067 54.747 76.9067 55.4287V69.601C76.9067 70.0935 76.8165 70.4721 76.6369 70.737C76.4567 71.0023 76.1917 71.2011 75.8416 71.3334C75.4911 71.4661 75.0037 71.5607 74.3789 71.6175V72.015H84.4614C86.6576 72.015 88.3617 71.5704 89.5736 70.6802C90.7852 69.7904 91.3913 68.5314 91.3913 66.9028C91.3913 65.464 90.8136 64.3232 89.6588 63.4804ZM80.258 53.8382H82.4733C83.7797 53.8382 84.8067 54.179 85.5549 54.8607C86.3027 55.5423 86.6767 56.4701 86.6767 57.644C86.6767 58.9127 86.3359 59.916 85.6543 60.6545C84.9726 61.3929 84.0256 61.7622 82.8141 61.7622H80.258V53.8382ZM86.7051 70.0696C85.9667 70.8364 84.9629 71.2198 83.6946 71.2198H82.4165C81.6781 71.2198 81.1336 71.092 80.7834 70.8364C80.4329 70.5808 80.258 70.1974 80.258 69.6861V62.5574H83.2969C84.698 62.5574 85.8007 62.9457 86.6057 63.7219C87.4103 64.4984 87.8128 65.5586 87.8128 66.9028C87.8128 68.2474 87.4436 69.3027 86.7051 70.0696Z" fill="black"/>
<path d="M130.838 59.3901C130.023 58.9454 129.039 58.7227 127.884 58.7227C126.558 58.7227 125.38 59.0022 124.348 59.5605C123.316 60.1191 122.506 60.9286 121.92 61.9888C121.332 63.0494 121.039 64.299 121.039 65.7378C121.039 67.0256 121.299 68.1803 121.82 69.2028C122.341 70.2252 123.074 71.016 124.021 71.5743C124.968 72.1325 126.056 72.4121 127.287 72.4121C128.802 72.4121 130.066 72.0051 131.079 71.1908C132.092 70.3769 132.721 69.2596 132.968 67.8395L132.655 67.7542C132.333 68.4927 131.832 69.1033 131.15 69.5862C130.468 70.069 129.673 70.3104 128.764 70.3104C127.325 70.3104 126.189 69.7756 125.356 68.7058C124.527 67.6419 124.141 66.1781 124.192 64.3177H132.968C133.119 63.163 133.005 62.1641 132.627 61.3213C132.248 60.4791 131.651 59.8351 130.838 59.3901ZM129.815 63.6077H124.236C124.328 62.4968 124.599 61.5526 125.072 60.7959C125.64 59.8871 126.397 59.4326 127.344 59.4326C128.234 59.4326 128.906 59.8116 129.361 60.5687C129.815 61.3262 129.966 62.3393 129.815 63.6077Z" fill="black"/>
<path d="M102.478 59.3901C101.664 58.9454 100.679 58.7227 99.5244 58.7227C98.1989 58.7227 97.0202 59.0022 95.9884 59.5605C94.9563 60.1191 94.1468 60.9286 93.5601 61.9888C92.973 63.0494 92.6797 64.299 92.6797 65.7378C92.6797 67.0256 92.9398 68.1803 93.4607 69.2028C93.9813 70.2252 94.7148 71.016 95.6618 71.5743C96.6084 72.1325 97.697 72.4121 98.9279 72.4121C100.443 72.4121 101.706 72.0051 102.72 71.1908C103.732 70.3769 104.362 69.2596 104.608 67.8395L104.296 67.7542C103.974 68.4927 103.472 69.1033 102.791 69.5862C102.109 70.069 101.314 70.3104 100.405 70.3104C98.9657 70.3104 97.8296 69.7756 96.9967 68.7058C96.1677 67.6419 95.7813 66.1781 95.8331 64.3177H104.608C104.76 63.163 104.646 62.1641 104.267 61.3213C103.888 60.4791 103.292 59.8351 102.478 59.3901ZM101.456 63.6077H95.8762C95.9684 62.4968 96.2398 61.5526 96.7127 60.7959C97.2807 59.8871 98.0378 59.4326 98.9848 59.4326C99.8745 59.4326 100.547 59.8116 101.001 60.5687C101.456 61.3262 101.607 62.3393 101.456 63.6077Z" fill="black"/>
<path d="M156.079 70.0835V63.0968C156.079 61.6958 155.733 60.6117 155.042 59.8448C154.35 59.078 153.399 58.6945 152.188 58.6945C151.146 58.6945 150.242 58.9884 149.475 59.575C148.708 60.1621 148.145 60.9667 147.785 61.9891V52.1055L142.957 53.3551V53.7527L143.298 53.7812C143.79 53.838 144.14 53.9848 144.349 54.2213C144.557 54.4583 144.661 54.8227 144.661 55.3148V70.0835C144.661 70.557 144.548 70.912 144.32 71.1486C144.093 71.3855 143.695 71.5417 143.127 71.6172V72.0148H149.319V71.6172C148.751 71.5417 148.353 71.3855 148.126 71.1486C147.899 70.912 147.785 70.557 147.785 70.0835V64.1193C147.785 63.3621 147.917 62.7276 148.183 62.2163C148.448 61.7051 148.803 61.3265 149.248 61.0803C149.692 60.8344 150.171 60.7111 150.682 60.7111C151.382 60.7111 151.941 60.9338 152.358 61.3785C152.774 61.8236 152.983 62.491 152.983 63.3808V70.0835C152.983 70.557 152.864 70.912 152.628 71.1486C152.391 71.3855 151.998 71.5417 151.449 71.6172V72.0148H157.641V71.6172C157.073 71.5417 156.67 71.3855 156.434 71.1486C156.196 70.912 156.079 70.557 156.079 70.0835Z" fill="black"/>
<path d="M118.857 70.0843V63.0976C118.857 61.6966 118.511 60.6125 117.82 59.8456C117.129 59.0788 116.168 58.6953 114.937 58.6953C113.896 58.6953 112.996 58.9891 112.239 59.5758C111.482 60.1629 110.914 60.9675 110.535 61.9899V58.6953L105.707 59.945V60.3426L106.048 60.371C106.54 60.4278 106.895 60.5747 107.113 60.8113C107.33 61.0482 107.439 61.4126 107.439 61.9047V70.0843C107.439 70.5578 107.321 70.9128 107.084 71.1494C106.847 71.3863 106.445 71.5425 105.877 71.618V72.0155H112.097V71.618C111.529 71.5425 111.127 71.3863 110.89 71.1494C110.653 70.9128 110.535 70.5578 110.535 70.0843V64.12C110.535 63.3629 110.672 62.7283 110.947 62.2171C111.221 61.7059 111.576 61.3273 112.012 61.0811C112.447 60.8352 112.921 60.7118 113.432 60.7118C114.152 60.7118 114.715 60.9346 115.122 61.3793C115.529 61.8244 115.733 62.4918 115.733 63.3816V70.0843C115.733 70.5578 115.619 70.9128 115.392 71.1494C115.165 71.3863 114.767 71.5425 114.199 71.618V72.0155H120.391V71.618C119.822 71.5425 119.425 71.3863 119.198 71.1494C118.97 70.9128 118.857 70.5578 118.857 70.0843Z" fill="black"/>
<path d="M141.426 70.7514C141.161 70.8747 140.887 70.936 140.603 70.936C139.921 70.936 139.41 70.723 139.069 70.297C138.728 69.871 138.558 69.2604 138.558 68.4651V59.8311H142.165V59.1211H138.558V55.0312H138.16C137.478 55.9024 136.806 56.6643 136.144 57.3176C135.481 57.9708 134.685 58.6764 133.758 59.4334V59.8311H135.434V68.4367C135.434 69.7054 135.75 70.6804 136.385 71.3621C137.019 72.0437 137.904 72.3845 139.041 72.3845C139.779 72.3845 140.451 72.1999 141.057 71.8307C141.663 71.4614 142.108 70.9835 142.392 70.3964L142.108 70.226C141.918 70.4532 141.691 70.6285 141.426 70.7514Z" fill="black"/>
<path d="M138.971 45.1739C139.946 45.7513 141.04 46.0401 142.252 46.0401C143.729 46.0401 144.95 45.6332 145.916 44.8189C146.881 44.005 147.487 42.8973 147.733 41.4959L147.421 41.4107C147.061 42.1873 146.55 42.8072 145.887 43.271C145.224 43.7352 144.467 43.9668 143.615 43.9668C142.763 43.9668 141.996 43.7303 141.315 43.2568C140.633 42.7837 140.098 42.1256 139.71 41.2829C139.322 40.4406 139.128 39.4892 139.128 38.4285C139.128 37.4443 139.284 36.5398 139.596 35.7162C139.909 34.8926 140.353 34.2393 140.931 33.7565C141.508 33.2737 142.167 33.0323 142.905 33.0323C143.776 33.0323 144.528 33.3544 145.163 33.998C145.797 34.6418 146.19 35.5317 146.342 36.6676H146.739L146.995 33.2312C146.427 32.9471 145.778 32.7248 145.049 32.5637C144.32 32.403 143.577 32.3223 142.82 32.3223C141.475 32.3223 140.273 32.616 139.213 33.2027C138.152 33.7898 137.319 34.6041 136.713 35.6452C136.107 36.6868 135.805 37.8703 135.805 39.1954C135.805 40.54 136.089 41.728 136.657 42.7597C137.225 43.792 137.996 44.5966 138.971 45.1739Z" fill="black"/>
<path d="M151.709 45.2013C152.655 45.7596 153.744 46.0391 154.975 46.0391C156.489 46.0391 157.753 45.6322 158.766 44.8178C159.779 44.004 160.409 42.8865 160.655 41.4665L160.343 41.3813C160.021 42.1197 159.519 42.7303 158.837 43.2132C158.156 43.696 157.361 43.9374 156.452 43.9374C155.013 43.9374 153.877 43.4026 153.044 42.3327C152.215 41.2689 151.828 39.8049 151.88 37.9447H160.655C160.806 36.79 160.693 35.7911 160.314 34.9484C159.935 34.106 159.339 33.4622 158.525 33.0171C157.711 32.5724 156.726 32.3496 155.571 32.3496C154.246 32.3496 153.067 32.6292 152.035 33.1875C151.003 33.7462 150.194 34.5556 149.607 35.6158C149.02 36.6764 148.727 37.9261 148.727 39.3648C148.727 40.6526 148.987 41.8073 149.508 42.8298C150.028 43.8522 150.762 44.643 151.709 45.2013ZM152.76 34.4229C153.328 33.5141 154.085 33.0597 155.032 33.0597C155.921 33.0597 156.594 33.4386 157.048 34.1958C157.503 34.9532 157.654 35.9664 157.503 37.2347H151.923C152.015 36.1238 152.287 35.1796 152.76 34.4229Z" fill="black"/>
<path d="M100.297 37.9742C99.8324 38.1636 99.2031 38.3718 98.4079 38.599C97.4799 38.8643 96.7273 39.1244 96.15 39.38C95.5722 39.6356 95.0801 40.0239 94.6731 40.5445C94.2658 41.0654 94.0625 41.7613 94.0625 42.632C94.0625 43.6357 94.4175 44.4594 95.1275 45.1029C95.8376 45.7464 96.7606 46.0685 97.8966 46.0685C98.9378 46.0685 99.8089 45.8032 100.51 45.2733C101.21 44.7434 101.721 43.9101 102.043 42.774V46.1253L106.758 44.9041V44.5064L106.417 44.4781C105.924 44.4212 105.569 44.2748 105.352 44.0378C105.134 43.8013 105.025 43.4463 105.025 42.9728V36.9801C105.025 35.5414 104.561 34.4053 103.634 33.572C102.706 32.7389 101.428 32.3223 99.7996 32.3223C98.7012 32.3223 97.7214 32.5259 96.86 32.9329C95.9982 33.3403 95.3263 33.8985 94.8435 34.6086C94.3607 35.3186 94.1002 36.1378 94.0625 37.0653H97.3003C97.1108 36.3837 97.0681 35.7304 97.1724 35.1056C97.2763 34.4808 97.5319 33.9792 97.9393 33.6003C98.3462 33.2218 98.8623 33.0323 99.4871 33.0323C100.207 33.0323 100.794 33.2834 101.248 33.785C101.702 34.2868 101.93 34.945 101.93 35.7588C101.93 36.346 101.773 36.8145 101.461 37.1647C101.149 37.5153 100.76 37.7851 100.297 37.9742ZM101.93 37.5197V41.1551C101.93 41.8367 101.806 42.4189 101.56 42.9018C101.314 43.3846 100.992 43.7494 100.595 43.9952C100.197 44.2415 99.7804 44.3644 99.3451 44.3644C98.739 44.3644 98.242 44.147 97.8541 43.7113C97.4658 43.2759 97.2718 42.7269 97.2718 42.0639C97.2718 41.4205 97.3899 40.8995 97.6268 40.5019C97.8634 40.1042 98.1567 39.8016 98.5072 39.593C98.8575 39.3849 99.3167 39.1767 99.8848 38.9682C100.434 38.76 100.865 38.5563 101.177 38.3575C101.489 38.1587 101.74 37.8796 101.93 37.5197Z" fill="black"/>
<path d="M128.804 37.9742C128.34 38.1636 127.711 38.3718 126.916 38.599C125.988 38.8643 125.235 39.1244 124.658 39.38C124.08 39.6356 123.588 40.0239 123.181 40.5445C122.774 41.0654 122.57 41.7613 122.57 42.632C122.57 43.6357 122.925 44.4594 123.635 45.1029C124.345 45.7464 125.268 46.0685 126.405 46.0685C127.446 46.0685 128.317 45.8032 129.017 45.2733C129.718 44.7434 130.229 43.9101 130.551 42.774V46.1253L135.266 44.9041V44.5064L134.925 44.4781C134.432 44.4212 134.077 44.2748 133.86 44.0378C133.642 43.8013 133.533 43.4463 133.533 42.9728V36.9801C133.533 35.5414 133.069 34.4053 132.142 33.572C131.214 32.7389 129.936 32.3223 128.307 32.3223C127.209 32.3223 126.229 32.5259 125.368 32.9329C124.506 33.3403 123.834 33.8985 123.351 34.6086C122.869 35.3186 122.608 36.1378 122.57 37.0653H125.808C125.619 36.3837 125.576 35.7304 125.68 35.1056C125.784 34.4808 126.04 33.9792 126.447 33.6003C126.854 33.2218 127.37 33.0323 127.995 33.0323C128.714 33.0323 129.301 33.2834 129.756 33.785C130.21 34.2868 130.437 34.945 130.437 35.7588C130.437 36.346 130.281 36.8145 129.969 37.1647C129.656 37.5153 129.268 37.7851 128.804 37.9742ZM130.437 37.5197V41.1551C130.437 41.8367 130.314 42.4189 130.068 42.9018C129.822 43.3846 129.5 43.7494 129.103 43.9952C128.705 44.2415 128.288 44.3644 127.853 44.3644C127.247 44.3644 126.75 44.147 126.362 43.7113C125.974 43.2759 125.78 42.7269 125.78 42.0639C125.78 41.4205 125.898 40.8995 126.135 40.5019C126.371 40.1042 126.665 39.8016 127.015 39.593C127.365 39.3849 127.825 39.1767 128.393 38.9682C128.942 38.76 129.372 38.5563 129.685 38.3575C129.997 38.1587 130.248 37.8796 130.437 37.5197Z" fill="black"/>
<path d="M93.4686 26.668H87.3054V27.0656C88.0439 27.1038 88.6306 27.1841 89.0664 27.307C89.5017 27.4304 89.8376 27.6385 90.0745 27.9319C90.3111 28.2256 90.4296 28.6468 90.4296 29.1957V40.045L79.9779 26.668H74.3828V27.0656C75.3103 27.1606 76.011 27.3922 76.4845 27.7615C76.9576 28.1307 77.1946 28.7036 77.1946 29.4797V43.084C77.1946 43.5952 77.1138 44.0026 76.9531 44.3052C76.7921 44.6083 76.56 44.8213 76.2573 44.9443C75.9543 45.0677 75.5472 45.1573 75.0361 45.2141L74.9509 45.2425V45.6401H81.114V45.2425L80.9152 45.2141C80.2335 45.1387 79.6842 45.0392 79.2678 44.9158C78.8511 44.793 78.5339 44.5848 78.3164 44.291C78.0985 43.9977 77.9898 43.5952 77.9898 43.084V29.6786L90.8273 46.0661H91.2248V29.1957C91.2248 28.6658 91.3145 28.2492 91.4946 27.946C91.6744 27.6434 91.9207 27.4304 92.2331 27.307C92.5455 27.1841 92.9573 27.1038 93.4686 27.0656V26.668Z" fill="black"/>
<path d="M109.907 45.2583C110.721 45.8166 111.677 46.0962 112.775 46.0962C113.816 46.0962 114.702 45.793 115.431 45.1873C116.159 44.5815 116.656 43.7011 116.922 42.546V46.1245L121.636 44.9033V44.5057L121.296 44.4773C120.803 44.4205 120.448 44.2692 120.231 44.0228C120.013 43.7769 119.904 43.4171 119.904 42.9436V25.7324L115.076 26.982V27.3797L115.416 27.408C115.909 27.4649 116.264 27.6117 116.482 27.8483C116.699 28.0852 116.808 28.4496 116.808 28.9417V33.4576C116.391 33.0599 115.904 32.7759 115.345 32.6055C114.787 32.4351 114.224 32.3499 113.656 32.3499C112.52 32.3499 111.473 32.6152 110.517 33.1451C109.561 33.6754 108.799 34.4658 108.231 35.5166C107.663 36.5675 107.379 37.8504 107.379 39.365C107.379 40.7283 107.596 41.9118 108.032 42.9152C108.467 43.919 109.092 44.7 109.907 45.2583ZM111.483 34.5936C112.023 33.5712 112.822 33.0599 113.883 33.0599C114.792 33.0599 115.506 33.434 116.027 34.1818C116.548 34.93 116.808 35.9191 116.808 37.1497V40.3874C116.789 41.6753 116.505 42.6454 115.956 43.2986C115.407 43.9518 114.706 44.2785 113.854 44.2785C113.21 44.2785 112.652 44.0562 112.179 43.611C111.705 43.1663 111.336 42.5273 111.071 41.694C110.805 40.8609 110.673 39.867 110.673 38.7118C110.673 36.9891 110.943 35.6161 111.483 34.5936Z" fill="black"/>
</svg>
