<svg width="152" height="48" viewBox="0 0 152 48" fill="none" xmlns="http://www.w3.org/2000/svg">
<g clip-path="url(#clip0_40001167_21971)">
<path d="M22.6669 39.4806C24.1808 36.8677 24.8962 34.0058 24.8962 31.1855C19.9294 34.0474 13.625 34.2547 8.30566 31.1855L0 45.557C7.93238 50.1297 18.0837 47.4131 22.6669 39.4806Z" fill="url(#paint0_linear_40001167_21971)"/>
<path d="M2.22936 8.51907C0.715468 11.1425 0 13.994 0 16.8144C4.9668 13.9525 11.2712 13.7451 16.5906 16.8144L24.8859 2.44278C16.9535 -2.13 6.80214 0.586704 2.22936 8.51907Z" fill="url(#paint1_linear_40001167_21971)"/>
<path d="M24.8859 31.1862C19.9191 34.0481 13.6146 34.2556 8.29529 31.1862C2.97592 28.117 0 22.5488 0 16.8147C4.9668 13.9528 11.2712 13.7454 16.5906 16.8147C21.9099 19.884 24.8859 25.4625 24.8859 31.1862Z" fill="#0C111D"/>
<path d="M32.9883 28.1317L35.1598 26.1706C36.5393 27.9535 38.4296 28.7176 40.8056 28.7176C42.9258 28.7176 44.3566 28.2335 44.3566 27.0874C44.3566 25.9158 43.2069 25.8902 40.0136 25.5082C36.5137 25.0752 33.8569 24.4894 33.8569 21.6621C33.8569 19.1405 36.3095 17.332 40.1924 17.332C43.4112 17.332 45.9148 18.5546 47.0645 20.0829L45.0973 21.9678C44.101 20.6433 42.2873 19.8537 40.0647 19.8537C37.8422 19.8537 36.7948 20.465 36.7948 21.3819C36.7948 22.3244 37.7911 22.4517 40.7288 22.8083C44.3308 23.2413 47.3709 23.6743 47.3709 26.7818C47.3709 29.7874 44.2287 31.2392 40.8312 31.2392C37.4079 31.2392 34.4699 30.1186 32.9883 28.1317Z" fill="#0C111D"/>
<path d="M62.4761 17.5859V30.9583H59.4107V29.2262C58.4656 30.3215 56.8816 31.2384 54.5824 31.2384C50.9293 31.2384 48.7578 28.7676 48.7578 25.0235V17.5859H51.8234V24.6924C51.8234 27.0611 52.9984 28.462 55.451 28.462C58.0313 28.462 59.4107 26.8829 59.4107 24.4122V17.5859H62.4761Z" fill="#0C111D"/>
<path d="M76.9478 29.2791C75.977 30.3234 74.1888 31.2402 71.7364 31.2402C67.1124 31.2402 64.3789 28.0819 64.3789 24.2867C64.3789 20.4915 67.1124 17.3331 71.7364 17.3331C74.1888 17.3331 75.977 18.25 76.9478 19.2943V12.6719H80.0134V30.9601H76.9478V29.2791ZM77.1009 24.1848C77.1009 21.7396 74.9552 19.8802 72.1705 19.8802C69.5394 19.8802 67.2913 21.4594 67.2913 24.2867C67.2913 27.114 69.5394 28.6932 72.1705 28.6932C74.9552 28.6932 77.1009 26.8339 77.1009 24.3886V24.1848Z" fill="#0C111D"/>
<path d="M89.5741 17.332C93.8149 17.332 97.2125 20.1339 97.2125 24.2856C97.2125 28.4375 93.8149 31.2392 89.5741 31.2392C85.3079 31.2392 81.9102 28.4375 81.9102 24.2856C81.9102 20.1339 85.3079 17.332 89.5741 17.332ZM89.5741 28.6158C92.1799 28.6158 94.2748 27.0111 94.2748 24.2856C94.2748 21.5602 92.1799 19.9555 89.5741 19.9555C86.9428 19.9555 84.8481 21.5602 84.8481 24.2856C84.8481 27.0111 86.9428 28.6158 89.5741 28.6158Z" fill="#0C111D"/>
<path d="M102.179 12.6719V30.9601H99.1133V12.6719H102.179Z" fill="#0C111D"/>
<path d="M109.62 31.2392C106.529 31.2392 104.051 29.8382 104.051 27.0874C104.051 24.7441 105.992 23.3432 109.211 22.9612L115.036 22.2734V22.1715C115.036 20.898 113.912 19.9301 111.408 19.9301C109.339 19.9301 107.525 20.8725 107.014 22.1715L104.485 21.0508C105.328 18.8094 108.266 17.332 111.51 17.332C115.649 17.332 117.999 19.0386 117.999 22.2225V27.8516C117.999 28.6158 118.357 28.9469 119.992 28.5902V30.9591C117.131 31.545 115.828 30.4752 115.393 29.1507C114.193 30.3731 112.123 31.2392 109.62 31.2392ZM115.036 25.7884V24.6677L109.722 25.3045C107.934 25.5082 107.04 25.9413 107.04 27.0619C107.04 28.1827 108.113 28.7684 109.875 28.7684C112.175 28.7684 115.036 27.7497 115.036 25.7884Z" fill="#0C111D"/>
<path d="M124.393 29.2791V30.9601H121.328V12.6719H124.393V19.2943C125.364 18.25 127.152 17.3331 129.605 17.3331C134.229 17.3331 136.962 20.4915 136.962 24.2867C136.962 28.0819 134.229 31.2402 129.605 31.2402C127.152 31.2402 125.364 30.3234 124.393 29.2791ZM124.24 24.1848V24.3886C124.24 26.8339 126.386 28.6932 129.171 28.6932C131.802 28.6932 134.05 27.114 134.05 24.2867C134.05 21.4594 131.802 19.8802 129.171 19.8802C126.386 19.8802 124.24 21.7396 124.24 24.1848Z" fill="#0C111D"/>
<path d="M137.277 28.1317L139.449 26.1706C140.828 27.9535 142.719 28.7176 145.094 28.7176C147.215 28.7176 148.645 28.2335 148.645 27.0874C148.645 25.9158 147.496 25.8902 144.303 25.5082C140.803 25.0752 138.146 24.4894 138.146 21.6621C138.146 19.1405 140.598 17.332 144.481 17.332C147.7 17.332 150.204 18.5546 151.353 20.0829L149.386 21.9678C148.39 20.6433 146.576 19.8537 144.354 19.8537C142.131 19.8537 141.084 20.465 141.084 21.3819C141.084 22.3244 142.08 22.4517 145.018 22.8083C148.62 23.2413 151.66 23.6743 151.66 26.7818C151.66 29.7874 148.518 31.2392 145.12 31.2392C141.697 31.2392 138.759 30.1186 137.277 28.1317Z" fill="#0C111D"/>
</g>
<defs>
<linearGradient id="paint0_linear_40001167_21971" x1="0.259228" y1="45.6399" x2="16.4869" y2="16.9175" gradientUnits="userSpaceOnUse">
<stop stop-color="#0C111D" stop-opacity="0.1"/>
<stop offset="1" stop-color="#0C111D"/>
</linearGradient>
<linearGradient id="paint1_linear_40001167_21971" x1="8.34712" y1="31.2273" x2="24.8859" y2="2.55681" gradientUnits="userSpaceOnUse">
<stop stop-color="#0C111D"/>
<stop offset="1" stop-color="#0C111D" stop-opacity="0.1"/>
</linearGradient>
<clipPath id="clip0_40001167_21971">
<rect width="151.66" height="48" fill="white"/>
</clipPath>
</defs>
</svg>
